# xmcd
# 
# Track frame offsets:
#     150
#     22618
#     39441
#     55050
#     71435
#     93984
#     120675
#     135147
#     156347
#     177365
#     198571
# 
# Disc length: 2878
# 
# Revision: 5
# Processed by: cddbd v1.5.2PL0 Copyright (c) Steve Scherf et al.
# Submitted via: fre:ac v1.0.31
# 
DISCID=850b3c0b
DTITLE=Joss Stone - The Soul Sessions
DYEAR=2012
DGENRE=Rock/Pop
TTITLE0=I Got The...
TTITLE1=(For God's Sake) Give More Power To The People
TTITLE2=While You're Out Looking For Sugar
TTITLE3=Sideway Shuffle
TTITLE4=I Don't Want To Be With Nobody But You
TTITLE5=Teardrops
TTITLE6=Stoned Out Of My Mind
TTITLE7=The Love We Had (Stays On My Mind)
TTITLE8=The High Road
TTITLE9=Pillow Talk
TTITLE10=Then You Can Tell Me Goodbye
EXTD=
EXTT0=
EXTT1=
EXTT2=
EXTT3=
EXTT4=
EXTT5=
EXTT6=
EXTT7=
EXTT8=
EXTT9=
EXTT10=
PLAYORDER=
